<?xml version="1.0" encoding="UTF-8"?>
<svg xmlns="http://www.w3.org/2000/svg" width="100%" height="300">
   <rect x="0" y="100" width="10" height="100" fill="blue"/>
   <rect x="30" y="200" width="10" height="0" fill="blue"/>
   <rect x="60" y="200" width="10" height="0" fill="blue"/>
   <rect x="90" y="200" width="10" height="0" fill="blue"/>
   <rect x="120" y="200" width="10" height="0" fill="blue"/>
   <rect x="150" y="200" width="10" height="0" fill="blue"/>
   <rect x="180" y="200" width="10" height="0" fill="blue"/>
   <rect x="210" y="200" width="10" height="0" fill="blue"/>
   <rect x="240" y="200" width="10" height="0" fill="blue"/>
   <rect x="270" y="200" width="10" height="0" fill="blue"/>
   <rect x="300" y="200" width="10" height="0" fill="blue"/>
   <rect x="330" y="200" width="10" height="0" fill="blue"/>
   <rect x="360" y="200" width="10" height="0" fill="blue"/>
   <rect x="390" y="200" width="10" height="0" fill="blue"/>
   <rect x="420" y="200" width="10" height="0" fill="blue"/>
   <rect x="450" y="200" width="10" height="0" fill="blue"/>
   <rect x="480" y="200" width="10" height="0" fill="blue"/>
   <rect x="510" y="200" width="10" height="0" fill="blue"/>
   <rect x="540" y="200" width="10" height="0" fill="blue"/>
   <rect x="570" y="200" width="10" height="0" fill="blue"/>
   <rect x="600" y="200" width="10" height="0" fill="blue"/>
   <rect x="630" y="200" width="10" height="0" fill="blue"/>
   <rect x="660" y="200" width="10" height="0" fill="blue"/>
   <rect x="690" y="200" width="10" height="0" fill="blue"/>
   <rect x="720" y="200" width="10" height="0" fill="blue"/>
   <rect x="750" y="200" width="10" height="0" fill="blue"/>
   <rect x="780" y="200" width="10" height="0" fill="blue"/>
   <rect x="810" y="200" width="10" height="0" fill="blue"/>
   <rect x="840" y="200" width="10" height="0" fill="blue"/>
   <rect x="870" y="200" width="10" height="0" fill="blue"/>
   <rect x="900" y="200" width="10" height="0" fill="blue"/>
   <rect x="930" y="200" width="10" height="0" fill="blue"/>
   <rect x="960" y="200" width="10" height="0" fill="blue"/>
   <rect x="990" y="200" width="10" height="0" fill="blue"/>
   <rect x="1020" y="200" width="10" height="0" fill="blue"/>
   <rect x="1050" y="200" width="10" height="0" fill="blue"/>
   <rect x="1080" y="200" width="10" height="0" fill="blue"/>
   <rect x="1110" y="200" width="10" height="0" fill="blue"/>
   <rect x="1140" y="200" width="10" height="0" fill="blue"/>
   <rect x="1170" y="200" width="10" height="0" fill="blue"/>
   <rect x="1200" y="200" width="10" height="0" fill="blue"/>
   <rect x="1230" y="200" width="10" height="0" fill="blue"/>
   <rect x="1260" y="200" width="10" height="0" fill="blue"/>
   <rect x="1290" y="200" width="10" height="0" fill="blue"/>
   <rect x="1320" y="200" width="10" height="0" fill="blue"/>
   <rect x="1350" y="200" width="10" height="0" fill="blue"/>
   <rect x="1380" y="200" width="10" height="0" fill="blue"/>
   <rect x="1410" y="200" width="10" height="0" fill="blue"/>
   <rect x="1440" y="200" width="10" height="0" fill="blue"/>
   <rect x="1470" y="200" width="10" height="0" fill="blue"/>
   <rect x="1500" y="200" width="10" height="0" fill="blue"/>
</svg>
